<svg width="256" height="256" viewBox="0 0 256 256" fill="none" xmlns="http://www.w3.org/2000/svg">
<g clip-path="url(#clip0_22_4)">
<rect x="134.191" y="113.974" width="17.4809" height="56.8131" fill="#999999"/>
<rect x="168.248" y="113.718" width="17.4809" height="56.8131" fill="#999999"/>
<circle cx="176.989" cy="94.4886" r="10.4886" fill="#999999"/>
<circle cx="142.901" cy="94.4886" r="10.4886" fill="#999999"/>
<path d="M69.0209 139.688C69.0209 147.399 76.4548 153.396 84.3398 153.396C92.2247 153.396 99.6586 147.399 99.6586 139.688V84H116.68V139.688C116.68 156.629 101.63 170.531 84.3398 170.531C67.05 170.531 52 157.013 52 139.688V84H69.0209V139.688Z" fill="#999999"/>
<path d="M193.024 163.668V170.777H192.096V163.668H193.024ZM195.309 163.668V164.439H189.816V163.668H195.309ZM196.662 163.668H197.575L199.904 169.464L202.228 163.668H203.146L200.256 170.777H199.543L196.662 163.668ZM196.364 163.668H197.17L197.302 168.004V170.777H196.364V163.668ZM202.634 163.668H203.439V170.777H202.502V168.004L202.634 163.668Z" fill="#999999"/>
</g>
<defs>
<clipPath id="clip0_22_4">
<rect width="256" height="256" fill="white"/>
</clipPath>
</defs>
</svg>
