<svg width="256" height="256" viewBox="0 0 256 256" fill="none" xmlns="http://www.w3.org/2000/svg">
<g clip-path="url(#clip0_1_2)">
<circle cx="128" cy="128" r="128" fill="white"/>
<rect x="135.941" y="109" width="22.7451" height="73.9216" fill="#999999"/>
<rect x="180.255" y="108.667" width="22.7451" height="73.9216" fill="#999999"/>
<circle cx="191.627" cy="83.6471" r="13.6471" fill="#999999"/>
<circle cx="147.275" cy="83.6471" r="13.6471" fill="#999999"/>
<path d="M51.1465 142.458C51.1465 152.49 60.819 160.294 71.0784 160.294C81.3379 160.294 91.0103 152.49 91.0103 142.458V70H113.157V142.458C113.157 164.5 93.5748 182.588 71.0784 182.588C48.582 182.588 29 165 29 142.458V70H51.1465V142.458Z" fill="#999999"/>
<path d="M211.797 174.68V182.5H210.777V174.68H211.797ZM214.311 174.68V175.528H208.269V174.68H214.311ZM215.799 174.68H216.803L219.365 181.055L221.922 174.68H222.932L219.752 182.5H218.968L215.799 174.68ZM215.471 174.68H216.357L216.502 179.449V182.5H215.471V174.68ZM222.368 174.68H223.254V182.5H222.223V179.449L222.368 174.68Z" fill="#999999"/>
</g>
<defs>
<clipPath id="clip0_1_2">
<rect width="256" height="256" fill="white"/>
</clipPath>
</defs>
</svg>
